<?xml version="1.0" encoding="UTF-8" standalone="no"?>
<!DOCTYPE svg PUBLIC "-//W3C//DTD SVG 1.1//EN" "http://www.w3.org/Graphics/SVG/1.1/DTD/svg11.dtd">
<svg width="100%" height="100%" viewBox="0 0 1024 1024" version="1.1" xmlns="http://www.w3.org/2000/svg" xmlns:xlink="http://www.w3.org/1999/xlink" xml:space="preserve" xmlns:serif="http://www.serif.com/" style="fill-rule:evenodd;clip-rule:evenodd;stroke-linejoin:round;stroke-miterlimit:2;">
    <g transform="matrix(1,0,0,1,-2230,-1900)">
        <g id="JokeFetcher-AppIcon-Tinted" serif:id="JokeFetcher AppIcon Tinted" transform="matrix(1,0,0,1,1156,1900)">
            <rect x="1074" y="0" width="1024" height="1024" style="fill:none;"/>
            <g transform="matrix(1.50437,0,0,2.20439,-302.099,229.928)">
                <g transform="matrix(1.78791,0,0,1.22015,-949.917,-32.1679)">
                    <path d="M1199.55,56.399C1217.06,22.624 1261.62,-0.204 1307.65,37.706C1377.09,12.335 1422.39,102.521 1362.76,137.39C1354.55,181.442 1305.61,188.003 1285.73,178.061C1283.91,195.691 1308.22,199.951 1303.38,207.593C1292.82,225.963 1261.21,212.415 1242.68,201.626C1234.25,209.535 1216.27,243.481 1164.56,223.891C1076.01,260.631 1047.57,146.415 1108.73,116.695C1108.36,60.948 1159.86,40.231 1199.55,56.399Z" style="fill:rgb(51,51,51);"/>
                </g>
                <g transform="matrix(1.78791,0,0,1.22015,-949.917,-32.1679)">
                    <path d="M1199.55,56.399C1217.06,22.624 1261.62,-0.204 1307.65,37.706C1377.09,12.335 1422.39,102.521 1362.76,137.39C1354.55,181.442 1305.61,188.003 1285.73,178.061C1283.91,195.691 1308.22,199.951 1303.38,207.593C1292.82,225.963 1261.21,212.415 1242.68,201.626C1234.25,209.535 1216.27,243.481 1164.56,223.891C1076.01,260.631 1047.57,146.415 1108.73,116.695C1108.36,60.948 1159.86,40.231 1199.55,56.399ZM1285.95,204.374C1284.64,203.264 1283.33,202.074 1282.11,200.777C1276.45,194.753 1272.46,187.09 1273.52,176.802C1273.94,172.795 1276.29,169.246 1279.82,167.306C1283.35,165.367 1287.61,165.285 1291.21,167.087C1297.26,170.109 1306.87,170.724 1316.58,168.712C1331.5,165.624 1346.87,155.7 1350.7,135.141C1351.35,131.641 1353.5,128.597 1356.57,126.799C1389.12,107.762 1381.17,67.589 1355.14,51.982C1343.64,45.086 1328.61,43.11 1311.86,49.23C1307.78,50.722 1303.21,49.941 1299.85,47.177C1284.39,34.444 1269.26,29.512 1255.57,30.423C1235.5,31.76 1219.07,45.414 1210.44,62.046C1207.52,67.676 1200.8,70.154 1194.92,67.762C1175.44,59.825 1152.43,62.45 1137.25,75.913C1127.19,84.823 1120.88,98.503 1121,116.614C1121.03,121.34 1118.34,125.665 1114.09,127.73C1097.09,135.991 1089.01,152.594 1088.44,169.277C1087.87,186.043 1094.7,203.175 1108.62,212.293C1120.84,220.299 1138.14,221.569 1159.86,212.559C1162.75,211.36 1165.99,211.31 1168.91,212.418C1185.86,218.841 1198.36,218.723 1207.74,215.278C1222.8,209.742 1229.84,196.844 1234.29,192.677C1238.24,188.966 1244.16,188.294 1248.85,191.023C1257.12,195.836 1268.26,201.364 1278.56,203.54C1281.13,204.084 1283.62,204.425 1285.95,204.374Z" style="fill:white;"/>
                </g>
                <g transform="matrix(2.03677,-0.508558,1.57717,2.9418,-1760.1,-238.98)">
                    <path d="M1147.69,346.296C1157.54,343.675 1160.47,339.627 1155.11,335.134L1143.34,325.258C1141.09,323.376 1137.67,322.89 1133.88,323.899C1130.09,324.907 1129.2,326.543 1131.44,328.425L1143.17,338.261C1144.97,339.772 1144.52,340.941 1141.91,341.635C1139.81,342.196 1137.74,342.046 1135.97,341.243C1133.32,340.044 1130.9,339.87 1127.95,340.654C1124.67,341.528 1123.67,343.139 1125.5,344.676C1126.31,345.352 1127.3,345.874 1128.76,346.412C1133.96,348.171 1140.7,348.156 1147.69,346.296Z" style="fill:white;fill-rule:nonzero;"/>
                    <path d="M1187.33,338.719C1201.21,336.976 1207.6,331.686 1203.78,324.908C1199.97,318.129 1188.86,315.022 1174.98,316.766C1161.1,318.509 1154.72,323.813 1158.53,330.592C1162.35,337.371 1173.42,340.467 1187.33,338.719ZM1184.53,333.749C1178.99,334.445 1174.04,332.564 1171.98,328.903C1169.91,325.227 1172.26,322.428 1177.77,321.736C1183.28,321.044 1188.27,322.92 1190.34,326.596C1192.4,330.258 1190.07,333.053 1184.53,333.749Z" style="fill:white;fill-rule:nonzero;"/>
                    <path d="M1217.68,335.935C1222.02,335.897 1224.46,334.658 1224.37,332.498L1224.27,329.745L1228.25,327.732L1238.92,333.894C1241.19,335.214 1243.21,335.713 1246.14,335.688C1249.88,335.656 1252.65,334.277 1252.59,332.513C1252.55,331.6 1251.52,330.635 1249.11,329.286L1238.84,323.501L1248.25,318.58C1250.14,317.59 1250.82,316.884 1250.78,315.91C1250.72,314.252 1247.77,312.954 1244.2,312.985C1241.88,313.005 1240.12,313.446 1238.2,314.498L1224.23,322.243L1223.98,322.245L1223.75,316.54C1223.67,314.38 1221.14,313.184 1216.8,313.222C1212.45,313.26 1210.02,314.498 1210.1,316.658L1210.72,332.616C1210.81,334.777 1213.33,335.972 1217.68,335.935Z" style="fill:white;fill-rule:nonzero;"/>
                    <path d="M1259.79,336.028L1280.03,337.777C1283.64,338.089 1286.3,337.376 1286.93,335.759C1287.56,334.143 1285.53,333.025 1281.99,332.718L1268.46,331.549L1269.8,328.092L1282.79,329.214C1286.05,329.496 1288.39,328.848 1288.96,327.396C1289.52,325.945 1287.75,324.941 1284.55,324.664L1271.56,323.542L1272.9,320.07L1286.43,321.238C1289.98,321.545 1292.71,320.837 1293.33,319.221C1293.96,317.604 1292,316.492 1288.39,316.18L1268.15,314.43C1263.87,314.061 1260.97,315.047 1260.14,317.173L1254.36,332.125C1253.53,334.25 1255.51,335.658 1259.79,336.028Z" style="fill:white;fill-rule:nonzero;"/>
                </g>
                <g transform="matrix(2.03677,-0.508558,1.57717,2.9418,-1736.2,-195.13)">
                    <path d="M1170.17,341.087C1172.23,340.75 1172.98,339.984 1172.23,338.963L1170.57,336.706L1176.35,335.759C1178,335.49 1178.7,334.909 1178.16,334.183C1177.63,333.457 1176.29,333.209 1174.68,333.473L1168.9,334.42L1167.44,332.436L1173.88,331.382C1175.58,331.103 1176.4,330.478 1175.83,329.702C1175.26,328.925 1173.83,328.669 1172.1,328.952L1162.43,330.534C1160.38,330.87 1159.63,331.637 1160.38,332.658L1165.78,340.019C1166.53,341.039 1168.12,341.423 1170.17,341.087Z" style="fill:white;fill-rule:nonzero;"/>
                    <path d="M1185.78,338.49L1195.77,337.334C1197.55,337.128 1198.46,336.545 1198.05,335.747C1197.63,334.949 1196.23,334.634 1194.48,334.837L1187.8,335.609L1186.91,333.902L1193.33,333.16C1194.94,332.974 1195.73,332.452 1195.36,331.735C1194.98,331.018 1193.74,330.731 1192.16,330.914L1185.75,331.656L1184.86,329.941L1191.54,329.169C1193.29,328.966 1194.23,328.38 1193.82,327.582C1193.4,326.784 1192.03,326.465 1190.25,326.671L1180.25,327.827C1178.14,328.071 1177.24,328.802 1177.79,329.851L1181.61,337.233C1182.15,338.282 1183.66,338.734 1185.78,338.49Z" style="fill:white;fill-rule:nonzero;"/>
                    <path d="M1207.95,336.534C1210.1,336.387 1211.14,335.7 1210.81,334.631L1208.71,327.795L1212.11,327.562C1213.89,327.44 1214.94,326.899 1214.69,326.086C1214.44,325.273 1213.14,324.893 1211.32,325.018L1197.78,325.946C1195.96,326.071 1194.94,326.61 1195.19,327.423C1195.44,328.236 1196.78,328.614 1198.56,328.491L1201.96,328.258L1204.06,335.095C1204.38,336.164 1205.8,336.682 1207.95,336.534Z" style="fill:white;fill-rule:nonzero;"/>
                    <path d="M1227.49,335.681C1232.01,335.586 1235.82,334.447 1237.02,332.83C1237.23,332.544 1237.34,332.252 1237.31,331.979C1237.23,331.12 1235.9,330.584 1233.96,330.625C1232.53,330.656 1231.73,330.939 1231.11,331.645C1230.22,332.639 1228.95,333.114 1227.09,333.154C1224.26,333.213 1222.39,332.08 1222.21,330.096C1222.02,328.135 1223.68,326.928 1226.48,326.869C1228.27,326.831 1229.59,327.237 1230.71,328.15C1231.52,328.811 1232.44,329.066 1233.92,329.035C1235.71,328.997 1236.83,328.44 1236.75,327.619C1236.72,327.232 1236.44,326.834 1235.93,326.464C1233.96,324.975 1230.6,324.246 1226.16,324.34C1219.15,324.487 1214.92,326.633 1215.26,330.25C1215.6,333.868 1220.12,335.836 1227.49,335.681Z" style="fill:white;fill-rule:nonzero;"/>
                    <path d="M1241.89,335.59C1244.06,335.665 1245.39,335.1 1245.56,334.023L1245.98,331.284L1254.14,331.566L1253.71,334.305C1253.55,335.382 1254.69,336.032 1256.86,336.107C1259.03,336.182 1260.36,335.617 1260.52,334.54L1261.76,326.581C1261.92,325.503 1260.78,324.854 1258.61,324.779C1256.44,324.704 1255.11,325.268 1254.95,326.346L1254.53,329.009L1246.38,328.727L1246.79,326.064C1246.96,324.986 1245.81,324.337 1243.64,324.262C1241.48,324.187 1240.15,324.751 1239.98,325.829L1238.75,333.788C1238.58,334.865 1239.73,335.515 1241.89,335.59Z" style="fill:white;fill-rule:nonzero;"/>
                    <path d="M1264.65,336.448L1274.77,337.323C1276.57,337.479 1277.91,337.122 1278.22,336.314C1278.53,335.506 1277.52,334.946 1275.75,334.793L1268.99,334.209L1269.65,332.48L1276.15,333.041C1277.78,333.182 1278.95,332.858 1279.23,332.132C1279.51,331.406 1278.63,330.904 1277.03,330.766L1270.54,330.205L1271.21,328.469L1277.97,329.053C1279.74,329.207 1281.11,328.853 1281.42,328.045C1281.73,327.236 1280.75,326.68 1278.95,326.524L1268.83,325.649C1266.69,325.464 1265.24,325.958 1264.83,327.02L1261.93,334.496C1261.52,335.559 1262.51,336.263 1264.65,336.448Z" style="fill:white;fill-rule:nonzero;"/>
                    <path d="M1281.54,338.246C1283.63,338.534 1285.18,338.115 1285.82,337.078L1287.12,334.983L1289.73,335.344L1291.13,338.225C1291.69,339.357 1292.17,339.717 1293.78,339.939C1295.68,340.202 1297.4,339.799 1297.92,338.974C1298.14,338.609 1298.17,338.351 1297.88,337.819L1296.67,335.685C1299.14,335.394 1300.88,334.437 1301.6,333.269C1303,331.013 1300.76,329.268 1294.81,328.445L1288.18,327.528C1286.1,327.239 1284.54,327.659 1283.9,328.695L1279.27,336.172C1278.63,337.209 1279.45,337.957 1281.54,338.246ZM1288.39,332.938L1290.04,330.266L1292.76,330.643C1294.52,330.886 1295.36,331.613 1294.88,332.394C1294.39,333.19 1292.93,333.567 1291.09,333.313L1288.39,332.938Z" style="fill:white;fill-rule:nonzero;"/>
                </g>
            </g>
        </g>
    </g>
</svg>
