<?xml version="1.0" encoding="UTF-8" standalone="no"?>
<!DOCTYPE svg PUBLIC "-//W3C//DTD SVG 1.1//EN" "http://www.w3.org/Graphics/SVG/1.1/DTD/svg11.dtd">
<svg width="100%" height="100%" viewBox="0 0 1024 1024" version="1.1" xmlns="http://www.w3.org/2000/svg" xmlns:xlink="http://www.w3.org/1999/xlink" xml:space="preserve" xmlns:serif="http://www.serif.com/" style="fill-rule:evenodd;clip-rule:evenodd;stroke-linejoin:round;stroke-miterlimit:2;">
    <g transform="matrix(1,0,0,1,-1120,-700)">
        <g id="Joke-AppIcon-DARK" serif:id="Joke AppIcon DARK" transform="matrix(1,0,0,1,46,700)">
            <rect x="1074" y="0" width="1024" height="1024" style="fill:none;"/>
            <g transform="matrix(10.6839,0,0,10.6724,1185.04,113.059)">
                <rect x="0" y="0" width="75.807" height="65.391" style="fill-opacity:0;"/>
            </g>
            <g transform="matrix(1.71002,0,0,1.71002,-531.497,159.891)">
                <g transform="matrix(1,0,0,1,1.20386,-12.4753)">
                    <path d="M1199.55,56.399C1217.06,22.624 1261.62,-0.204 1307.65,37.706C1377.09,12.335 1422.39,102.521 1362.76,137.39C1354.55,181.442 1305.61,188.003 1285.73,178.061C1283.91,195.691 1308.22,199.951 1303.38,207.593C1292.82,225.963 1261.21,212.415 1242.68,201.626C1234.25,209.535 1216.27,243.481 1164.56,223.891C1076.01,260.631 1047.57,146.415 1108.73,116.695C1108.36,60.948 1159.86,40.231 1199.55,56.399Z" style="fill:rgb(143,38,217);fill-opacity:0.2;"/>
                </g>
                <g transform="matrix(1,0,0,1,1.20386,-12.4753)">
                    <path d="M1199.55,56.399C1217.06,22.624 1261.62,-0.204 1307.65,37.706C1377.09,12.335 1422.39,102.521 1362.76,137.39C1354.55,181.442 1305.61,188.003 1285.73,178.061C1283.91,195.691 1308.22,199.951 1303.38,207.593C1292.82,225.963 1261.21,212.415 1242.68,201.626C1234.25,209.535 1216.27,243.481 1164.56,223.891C1076.01,260.631 1047.57,146.415 1108.73,116.695C1108.36,60.948 1159.86,40.231 1199.55,56.399ZM1295.12,205.974C1293.88,204.935 1292.24,203.555 1290.92,202.493C1283.87,196.815 1276.94,189.129 1278.17,177.281C1278.42,174.798 1279.88,172.599 1282.07,171.397C1284.26,170.196 1286.89,170.145 1289.13,171.261C1295.9,174.646 1306.64,175.536 1317.53,173.282C1334.06,169.858 1351.04,158.789 1355.29,135.997C1355.69,133.828 1357.02,131.942 1358.92,130.828C1394.97,109.747 1386.37,65.261 1357.54,47.98C1344.97,40.445 1328.56,38.159 1310.26,44.847C1307.73,45.771 1304.9,45.287 1302.82,43.575C1286.23,29.917 1269.94,24.789 1255.26,25.767C1233.52,27.214 1215.64,41.884 1206.3,59.898C1204.49,63.387 1200.32,64.922 1196.68,63.44C1175.55,54.832 1150.62,57.819 1134.15,72.421C1123.21,82.114 1116.2,96.941 1116.33,116.645C1116.35,119.574 1114.68,122.253 1112.05,123.533C1093.38,132.608 1084.4,150.789 1083.77,169.118C1083.14,187.497 1090.8,206.202 1106.06,216.197C1119.32,224.882 1138.09,226.645 1161.65,216.869C1163.44,216.127 1165.45,216.096 1167.26,216.782C1185.63,223.742 1199.19,223.392 1209.35,219.659C1225.2,213.831 1232.8,200.468 1237.48,196.081C1239.93,193.782 1243.6,193.365 1246.5,195.056C1256.74,201.013 1271.23,208.062 1283.35,208.954C1287.97,209.295 1292.24,208.78 1295.12,205.974Z" style="fill:rgb(143,38,217);"/>
                </g>
                <g transform="matrix(1.16378,-0.342198,0.724237,2.46305,-427.809,-270.174)">
                    <path d="M1165.33,341.657L1186.27,338.275C1190.18,337.644 1191.97,336.251 1190.7,334.502C1189.44,332.753 1186.15,332.18 1182.32,332.8L1168.64,335.008L1158,320.301C1156.34,318.001 1152.76,317.131 1148.13,317.879C1143.5,318.626 1141.8,320.348 1143.46,322.648L1155.46,339.234C1157.12,341.534 1160.7,342.404 1165.33,341.657Z" style="fill:rgb(143,38,217);fill-rule:nonzero;"/>
                    <path d="M1215.78,336.316C1231.85,335.535 1240.92,330.191 1239.22,322.341C1237.51,314.492 1226.32,310.113 1210.25,310.893C1194.18,311.674 1185.11,317.035 1186.82,324.885C1188.52,332.734 1199.67,337.098 1215.78,336.316ZM1214.53,330.56C1208.11,330.872 1203.31,328.369 1202.39,324.129C1201.46,319.872 1205.12,316.958 1211.5,316.649C1217.88,316.339 1222.72,318.84 1223.65,323.097C1224.57,327.337 1220.94,330.249 1214.53,330.56Z" style="fill:rgb(143,38,217);fill-rule:nonzero;"/>
                    <path d="M1250.73,335.565L1272.66,336.982C1276.75,337.246 1279.67,336.381 1280.2,334.55C1280.73,332.718 1278.34,331.509 1274.32,331.25L1260,330.324L1264.45,314.925C1265.15,312.517 1262.78,310.982 1257.93,310.669C1253.09,310.356 1249.93,311.534 1249.23,313.942L1244.21,331.308C1243.51,333.717 1245.88,335.252 1250.73,335.565Z" style="fill:rgb(143,38,217);fill-rule:nonzero;"/>
                    <path d="M1293.57,331.58C1297.63,332.154 1300.38,331.328 1301.77,329.38L1308.31,320.299C1308.56,319.96 1308.84,319.588 1309.01,319.309C1310.35,317.193 1308.59,315.622 1304.11,314.989C1299.63,314.356 1296.26,315.202 1294.92,317.317C1294.74,317.596 1294.54,317.978 1294.36,318.328L1289.27,327.614C1288.16,329.602 1289.47,331.001 1293.57,331.58ZM1288.42,339.714C1292.44,340.283 1296.69,339.311 1297.85,337.474C1299.01,335.654 1296.59,333.74 1292.56,333.171C1288.46,332.592 1284.26,333.569 1283.1,335.39C1281.94,337.226 1284.32,339.136 1288.42,339.714Z" style="fill:rgb(143,38,217);fill-rule:nonzero;"/>
                </g>
            </g>
            <g id="Front" transform="matrix(1,0,0,1,938.088,499.705)">
                <g transform="matrix(200,0,0,200,977.638,295.023)">
                </g>
                <text x="305.177px" y="295.023px" style="font-family:'SFProRounded-Black', 'SF Pro Rounded';font-weight:900;font-size:200px;fill:rgb(143,38,217);">JOKES</text>
            </g>
        </g>
    </g>
</svg>
