<?xml version="1.0" encoding="UTF-8" standalone="no"?>
<!DOCTYPE svg PUBLIC "-//W3C//DTD SVG 1.1//EN" "http://www.w3.org/Graphics/SVG/1.1/DTD/svg11.dtd">
<svg width="100%" height="100%" viewBox="0 0 324 222" version="1.1" xmlns="http://www.w3.org/2000/svg" xmlns:xlink="http://www.w3.org/1999/xlink" xml:space="preserve" xmlns:serif="http://www.serif.com/" style="fill-rule:evenodd;clip-rule:evenodd;stroke-linejoin:round;stroke-miterlimit:2;">
    <g transform="matrix(1,0,0,1,-1055,0)">
        <g id="CloudLol" transform="matrix(0.560409,0,0,0.822967,512.869,13.9462)">
            <rect x="968.148" y="-16.946" width="575.707" height="269.653" style="fill:none;"/>
            <g transform="matrix(1.78441,0,0,1.21512,-946.161,-32.1051)">
                <path d="M1199.55,56.399C1217.06,22.624 1261.62,-0.204 1307.65,37.706C1377.09,12.335 1422.39,102.521 1362.76,137.39C1354.55,181.442 1305.61,188.003 1285.73,178.061C1283.91,195.691 1308.22,199.951 1303.38,207.593C1292.82,225.963 1261.21,212.415 1242.68,201.626C1234.25,209.535 1216.27,243.481 1164.56,223.891C1076.01,260.631 1047.57,146.415 1108.73,116.695C1108.36,60.948 1159.86,40.231 1199.55,56.399ZM1283.95,203.597C1283.07,202.795 1282.26,202.006 1281.58,201.278C1275.78,195.11 1271.71,187.261 1272.8,176.727C1273.24,172.481 1275.73,168.72 1279.47,166.666C1283.21,164.611 1287.72,164.524 1291.54,166.433C1297.47,169.399 1306.9,169.971 1316.43,167.997C1331.1,164.961 1346.21,155.216 1349.98,135.008C1350.67,131.299 1352.94,128.073 1356.2,126.169C1388.21,107.451 1380.36,67.954 1354.76,52.609C1343.43,45.813 1328.62,43.885 1312.11,49.917C1307.79,51.498 1302.94,50.67 1299.39,47.741C1284.1,35.153 1269.15,30.252 1255.62,31.153C1235.81,32.472 1219.6,45.967 1211.09,62.382C1208,68.348 1200.87,70.974 1194.65,68.438C1175.42,60.607 1152.72,63.175 1137.73,76.46C1127.82,85.247 1121.61,98.748 1121.73,116.609C1121.76,121.617 1118.91,126.199 1114.41,128.388C1097.67,136.521 1089.73,152.876 1089.17,169.302C1088.6,185.815 1095.31,202.701 1109.02,211.681C1121.08,219.581 1138.15,220.775 1159.58,211.884C1162.64,210.614 1166.07,210.561 1169.17,211.735C1185.9,218.073 1198.23,217.992 1207.48,214.592C1222.42,209.102 1229.38,196.277 1233.79,192.144C1237.98,188.212 1244.25,187.5 1249.22,190.391C1257.43,195.169 1268.49,200.664 1278.71,202.825C1280.5,203.205 1282.26,203.485 1283.95,203.597Z"/>
            </g>
            <g transform="matrix(1.71194,-0.342782,0.503379,1.16576,-1052.12,188.53)">
                <g transform="matrix(85.1645,-29.1035,29.1035,85.1645,1169.92,355.87)">
                    <path d="M0.152,-0L0.451,-0C0.506,-0 0.542,-0.03 0.542,-0.083C0.542,-0.135 0.505,-0.165 0.451,-0.165L0.256,-0.165L0.256,-0.608C0.256,-0.678 0.218,-0.717 0.152,-0.717C0.086,-0.717 0.049,-0.678 0.049,-0.608L0.049,-0.108C0.049,-0.039 0.086,-0 0.152,-0Z" style="fill-rule:nonzero;"/>
                </g>
                <g transform="matrix(89.5288,-9.19765,9.19765,89.5288,1209.36,340.188)">
                    <path d="M0.387,0.012C0.604,0.012 0.742,-0.127 0.742,-0.352C0.742,-0.577 0.604,-0.717 0.387,-0.717C0.169,-0.717 0.032,-0.577 0.032,-0.352C0.032,-0.127 0.168,0.012 0.387,0.012ZM0.387,-0.153C0.3,-0.153 0.243,-0.23 0.243,-0.352C0.243,-0.474 0.3,-0.552 0.387,-0.552C0.473,-0.552 0.531,-0.474 0.531,-0.352C0.531,-0.23 0.474,-0.153 0.387,-0.153Z" style="fill-rule:nonzero;"/>
                </g>
                <g transform="matrix(89.1702,12.1936,-12.1936,89.1702,1272.9,333.94)">
                    <path d="M0.152,-0L0.451,-0C0.506,-0 0.542,-0.03 0.542,-0.083C0.542,-0.135 0.505,-0.165 0.451,-0.165L0.256,-0.165L0.256,-0.608C0.256,-0.678 0.218,-0.717 0.152,-0.717C0.086,-0.717 0.049,-0.678 0.049,-0.608L0.049,-0.108C0.049,-0.039 0.086,-0 0.152,-0Z" style="fill-rule:nonzero;"/>
                </g>
                <g transform="matrix(86.2259,25.7896,-25.7896,86.2259,1316.92,340.044)">
                    <path d="M0.183,-0.223C0.24,-0.223 0.269,-0.256 0.271,-0.314L0.281,-0.588C0.282,-0.598 0.282,-0.609 0.282,-0.618C0.282,-0.681 0.247,-0.717 0.184,-0.717C0.121,-0.717 0.084,-0.681 0.084,-0.618C0.084,-0.609 0.084,-0.598 0.085,-0.588L0.095,-0.314C0.097,-0.256 0.125,-0.223 0.183,-0.223ZM0.183,0.02C0.24,0.02 0.287,-0.023 0.287,-0.078C0.287,-0.132 0.24,-0.175 0.183,-0.175C0.125,-0.175 0.079,-0.132 0.079,-0.078C0.079,-0.023 0.125,0.02 0.183,0.02Z" style="fill-rule:nonzero;"/>
                </g>
            </g>
        </g>
    </g>
</svg>
